#!OML:ASF F:\VICON\USERDATA\INSTALL\rory3\rory3.ASF
:FULLY-SPECIFIED
:DEGREES
2618
root -2.93295 17.6577 1.57534 4.12111 5.10523 1.15935
lowerback 3.29009 -1.35961 -4.42473
upperback 0.375642 -1.94425 1.87356
thorax -1.24548 -0.948314 4.49926
lowerneck -23.7946 -0.487786 -9.06912
upperneck 24.8937 1.87158 3.05603
head 12.0479 0.371485 2.98526
rclavicle -1.2424e-015 5.56597e-015
rhumerus -63.6635 -43.3293 -19.0973
rradius 32.0527
rwrist 30.6656
rhand -25.1549 -4.97752
rfingers 7.12502
rthumb 1.36199 -34.9529
lclavicle -1.2424e-015 5.56597e-015
lhumerus -56.4789 44.8852 27.7833
lradius 22.0099
lwrist -17.5449
lhand -18.6108 19.5268
lfingers 7.12502
lthumb 7.68081 49.3673
rfemur -13.0729 -1.39671 12.7311
rtibia 33.251
rfoot -22.0514 -6.22831
rtoes 7.12232
lfemur -11.6688 -2.49888 -16.6232
ltibia 27.9928
lfoot -16.2993 2.81245
ltoes -21.0228
2619
root -2.93842 17.656 1.58904 4.18243 5.10345 1.17624
lowerback 3.29872 -1.36468 -4.52585
upperback 0.357474 -1.95464 1.91754
thorax -1.26298 -0.952157 4.60328
lowerneck -23.5942 -0.450741 -9.12687
upperneck 24.6485 1.92598 3.03548
head 11.9096 0.395875 2.9866
rclavicle 2.43511e-014 -1.63003e-014
rhumerus -65.3525 -42.8342 -16.6479
rradius 32.19
rwrist 29.8665
rhand -25.0901 -5.42932
rfingers 7.12502
rthumb 1.42458 -35.4043
lclavicle 2.43511e-014 -1.63003e-014
lhumerus -58.7473 44.6853 24.3446
lradius 22.0283
lwrist -17.4595
lhand -17.7553 19.3241
lfingers 7.12502
lthumb 8.50649 49.1328
rfemur -13.0936 -1.36642 12.7323
rtibia 33.2462
rfoot -22.1328 -6.25606
rtoes 7.15416
lfemur -11.6791 -2.59743 -16.6168
ltibia 28.0016
lfoot -16.3242 2.89621
ltoes -20.8813
2620
root -2.94537 17.6552 1.6042 4.21224 5.1037 1.09227
lowerback 3.26183 -1.38547 -4.55839
upperback 0.365984 -1.98079 2.0025
thorax -1.22643 -0.966269 4.70974
lowerneck -23.4367 -0.410246 -9.20049
upperneck 24.4868 1.99356 3.026
head 11.8113 0.423451 2.99963
rclavicle 1.88348e-014 8.74653e-015
rhumerus -66.9042 -42.3741 -14.1578
rradius 32.3864
rwrist 29.1589
rhand -25.1539 -5.71539
rfingers 7.12502
rthumb 1.36297 -35.6908
lclavicle 1.88348e-014 8.74653e-015
lhumerus -61.0666 44.5283 20.72
lradius 22.2159
lwrist -17.4251
lhand -16.91 18.8977
lfingers 7.12502
lthumb 9.32221 48.6716
rfemur -13.0722 -1.36732 12.8664
rtibia 33.2214
rfoot -22.1966 -6.27592
rtoes 7.04481
lfemur -11.6813 -2.63473 -16.4841
ltibia 28.0247
lfoot -16.3609 2.896
ltoes -20.7322
2621
root -2.94991 17.6548 1.62294 4.2256 5.12995 1.06037
lowerback 3.17519 -1.41423 -4.58962
upperback 0.417541 -2.01565 2.04349
thorax -1.11809 -0.987794 4.76742
lowerneck -23.4453 -0.389736 -9.22894
upperneck 24.4527 2.03852 3.00894
head 11.7967 0.439707 3.00431
rclavicle -4.12478e-014 -5.1684e-015
rhumerus -68.335 -41.8933 -11.7127
rradius 32.6493
rwrist 28.5821
rhand -25.2066 -5.59277
rfingers 7.12502
rthumb 1.31203 -35.5685
lclavicle -4.12478e-014 -5.1684e-015
lhumerus -62.7187 43.9355 17.8458
lradius 22.6191
lwrist -16.5726
lhand -16.4312 18.9154
lfingers 7.12502
lthumb 9.78418 48.6681
rfemur -12.9999 -1.41054 12.9256
rtibia 33.1766
rfoot -22.2675 -6.23307
rtoes 7.05681
lfemur -11.6522 -2.67907 -16.4216
ltibia 28.0643
lfoot -16.4523 2.89229
ltoes -20.6976
2622
root -2.95292 17.6562 1.64081 4.25905 5.13412 0.952821
lowerback 3.09065 -1.43744 -4.53367
upperback 0.46395 -2.04022 2.09353
thorax -1.02011 -1.0041 4.78489
lowerneck -23.4733 -0.346667 -9.14629
upperneck 24.3666 2.0963 2.91819
head 11.767 0.464014 2.96382
rclavicle -5.41688e-015 4.37326e-015
rhumerus -69.4706 -41.2162 -9.56179
rradius 33.017
rwrist 27.904
rhand -25.28 -5.42938
rfingers 7.12502
rthumb 1.24113 -35.4055
lclavicle -5.41688e-015 4.37326e-015
lhumerus -63.8236 43.0219 15.6067
lradius 23.2079
lwrist -15.1876
lhand -16.16 19.4364
lfingers 7.12502
lthumb 10.0458 49.1766
rfemur -12.9557 -1.41467 13.068
rtibia 33.1107
rfoot -22.3066 -6.17809
rtoes 6.8953
lfemur -11.6412 -2.71323 -16.2903
ltibia 28.1032
lfoot -16.5675 2.94992
ltoes -20.7556
2623
root -2.95893 17.6563 1.65625 4.32465 5.11483 0.800894
lowerback 3.03726 -1.44743 -4.50515
upperback 0.506912 -2.04889 2.20227
thorax -0.941837 -1.01173 4.87965
lowerneck -23.6022 -0.320694 -9.13168
upperneck 24.2491 2.15367 2.86885
head 11.7434 0.488291 2.95069
rclavicle 9.93923e-016 1.19271e-014
rhumerus -70.45 -40.6752 -7.27585
rradius 33.3616
rwrist 27.3843
rhand -25.2762 -5.27288
rfingers 7.12502
rthumb 1.24482 -35.249
lclavicle 9.93923e-016 1.19271e-014
lhumerus -64.9889 42.2755 13.1726
lradius 23.7756
lwrist -14.3294
lhand -16.0627 20.0111
lfingers 7.12502
lthumb 10.1396 49.7468
rfemur -12.9612 -1.35129 13.276
rtibia 33.0539
rfoot -22.3493 -6.13281
rtoes 6.88505
lfemur -11.6722 -2.74537 -16.0924
ltibia 28.1083
lfoot -16.6273 3.01014
ltoes -20.6518
2624
root -2.96417 17.6564 1.6724 4.40903 5.12593 0.758004
lowerback 2.94273 -1.49793 -4.60029
upperback 0.532503 -2.11444 2.29587
thorax -0.847657 -1.04774 5.02943
lowerneck -23.7251 -0.27464 -9.19726
upperneck 24.1967 2.23885 2.9268
head 11.7387 0.529896 2.99736
rclavicle 1.64991e-014 2.50469e-014
rhumerus -71.2114 -40.2039 -5.00985
rradius 33.7209
rwrist 27.144
rhand -25.0514 -5.14418
rfingers 7.12502
rthumb 1.46197 -35.1189
lclavicle 1.64991e-014 2.50469e-014
lhumerus -66.2365 41.5727 10.4839
lradius 24.2958
lwrist -14.0682
lhand -15.8138 20.4785
lfingers 7.12502
lthumb 10.3798 50.2023
rfemur -12.9733 -1.32907 13.3468
rtibia 33.0167
rfoot -22.3773 -6.15893
rtoes 7.09333
lfemur -11.7168 -2.8325 -16.0186
ltibia 28.1007
lfoot -16.6738 3.08186
ltoes -20.4684
